<svg version="1.1" id="Layer_1" xmlns="http://www.w3.org/2000/svg" xmlns:xlink="http://www.w3.org/1999/xlink" x="0px" y="0px"
	 width="100%" viewBox="0 0 246 240" enable-background="new 0 0 246 240" xml:space="preserve">
<path fill="#FDFDFD" opacity="1.000000" stroke="none" 
	d="
M194.231842,240.737549 
	C131.028625,241.000000 68.057205,240.971115 5.086034,241.083130 
	C1.852153,241.088882 0.887002,240.691467 0.893518,237.089325 
	C1.033648,159.624802 1.025401,82.159920 0.911405,4.695306 
	C0.906616,1.440931 1.808484,0.927991 4.801491,0.931249 
	C84.265266,1.017746 163.729187,1.017388 243.192963,0.932344 
	C246.172592,0.929155 247.094421,1.421614 247.089569,4.689760 
	C246.974289,82.320961 246.971817,159.952408 247.099640,237.583572 
	C247.104935,240.797653 246.175369,241.098694 243.418671,241.067261 
	C230.259674,240.917175 217.098022,241.000000 203.468658,241.000000 
	C201.438171,237.660355 204.835983,235.361130 204.879333,232.285461 
	C204.893188,231.302261 206.492706,231.700760 207.486725,231.792419 
	C211.621704,232.173828 214.802734,230.659058 216.984436,227.010345 
	C218.996796,223.644867 220.762573,220.008865 225.277267,219.156036 
	C226.332169,218.956772 227.179214,217.863358 228.063156,217.109711 
	C229.765320,215.658478 227.463715,214.922958 227.397110,213.726715 
	C227.284775,211.708389 226.006012,213.018906 225.342499,213.321014 
	C221.565521,215.040726 218.736374,218.126160 216.031784,221.009949 
	C210.808304,226.579498 206.074219,232.551544 198.178421,234.487915 
	C194.978302,235.272690 195.690308,238.472549 194.231842,240.737549 
z"/>
<path fill="#F8F8F8" opacity="1.000000" stroke="none" 
	d="
M194.449982,241.000000 
	C193.660965,236.413681 194.155426,233.173111 200.268570,232.684448 
	C204.177460,232.371979 207.441574,228.732010 210.043549,225.584061 
	C211.921249,223.312393 215.555008,222.163971 215.234772,218.198074 
	C215.158737,217.256317 216.366333,217.285294 217.221344,217.577057 
	C218.606766,218.049805 219.965729,217.155823 220.056381,216.229828 
	C220.521423,211.479706 225.835983,213.190536 227.618332,210.315277 
	C227.729843,210.135406 228.291580,210.071533 228.546051,210.180984 
	C228.942871,210.351715 229.255859,210.717285 229.604385,211.000275 
	C225.533936,213.765167 233.272644,214.874313 230.604584,216.600586 
	C228.009491,218.279648 226.429901,221.218857 222.588730,221.779068 
	C220.527985,222.079620 218.774338,226.096649 217.339890,228.689850 
	C215.365204,232.259628 209.543228,234.417801 205.265717,232.296051 
	C206.507217,235.724167 204.590881,237.924271 203.009003,240.625000 
	C200.299988,241.000000 197.599976,241.000000 194.449982,241.000000 
z"/>
<path fill="#050505" opacity="1.000000" stroke="none" 
	d="
M103.516731,218.575348 
	C124.884155,197.250183 145.998550,176.180679 167.110992,155.109207 
	C168.054459,154.167587 169.022644,153.245941 169.907043,152.250763 
	C174.196304,147.424194 174.297684,141.156921 170.183670,136.940948 
	C165.905228,132.556473 159.262024,132.431885 154.535538,137.051514 
	C144.168930,147.183716 133.961121,157.478683 123.711555,167.730270 
	C109.102463,182.342255 94.428413,196.891281 79.993507,211.673630 
	C77.304306,214.427567 75.395386,214.281174 72.327827,212.589249 
	C13.943222,180.386856 0.606019,100.932777 45.129707,50.954548 
	C71.403465,21.462017 111.982819,9.718877 147.120697,18.548021 
	C147.023651,20.850908 145.010086,21.801531 143.693787,23.121889 
	C122.398796,44.482422 101.046982,65.786301 79.715263,87.110245 
	C78.538300,88.286789 77.289543,89.426552 76.305824,90.754951 
	C73.035851,95.170738 73.526817,101.123505 77.359093,104.911354 
	C81.177391,108.685394 87.165985,109.102211 91.515312,105.770393 
	C92.960091,104.663620 94.198860,103.281090 95.493919,101.986710 
	C119.538124,77.954941 143.621078,53.961517 167.549789,29.815239 
	C170.032043,27.310423 171.702927,27.184372 174.703278,28.856773 
	C214.344788,50.952923 235.066635,94.971809 226.987732,140.282608 
	C219.304825,183.372589 183.552582,218.065140 139.799042,224.766037 
	C126.516487,226.800278 113.294594,226.438812 99.894737,223.155548 
	C100.472260,221.021133 102.222137,220.185043 103.516731,218.575348 
z"/>
<path fill="#FCFCFC" opacity="1.000000" stroke="none" 
	d="
M106.426353,153.426788 
	C101.933632,157.913803 97.746727,162.208420 93.438545,166.377716 
	C88.367256,171.285522 81.899384,171.583572 77.411522,167.254242 
	C72.882858,162.885559 72.941452,156.286789 77.938416,151.269775 
	C103.326523,125.779892 128.766769,100.341698 154.260757,74.957718 
	C159.330185,69.910156 165.704498,69.926720 170.209122,74.602325 
	C174.526657,79.083748 174.215286,85.566452 169.188293,90.613426 
	C148.383789,111.500565 127.520325,132.328979 106.426353,153.426788 
z"/>
<path fill="#151515" opacity="1.000000" stroke="none" 
	d="
M122.655762,26.476471 
	C122.133598,23.386995 125.558388,23.116367 126.262993,20.720085 
	C126.527954,19.818972 127.917763,20.841000 127.941132,21.964901 
	C128.011353,25.343136 126.582047,27.229181 122.655762,26.476471 
z"/>
<path fill="#0C0C0C" opacity="1.000000" stroke="none" 
	d="
M42.413269,86.688141 
	C39.891697,87.033669 40.150387,89.193832 39.387295,90.709442 
	C37.535061,87.048683 38.537579,84.533806 41.854961,84.261917 
	C44.031700,84.083511 44.090942,85.125221 42.413269,86.688141 
z"/>
<path fill="#171717" opacity="1.000000" stroke="none" 
	d="
M122.380638,160.350525 
	C121.163620,161.044189 120.847832,163.206879 119.648369,162.298584 
	C118.298279,161.276199 119.049828,159.613846 120.130951,158.432465 
	C121.204079,157.259857 122.793716,156.329742 123.989616,157.431519 
	C125.525826,158.846802 123.640305,159.472336 122.380638,160.350525 
z"/>
<path fill="#0B0B0B" opacity="1.000000" stroke="none" 
	d="
M203.428009,88.451233 
	C202.604477,88.996140 201.980698,89.223938 201.451126,89.588593 
	C200.508530,90.237640 199.854370,92.648872 198.627731,91.203018 
	C197.011002,89.297325 199.454681,88.063980 200.665604,86.982780 
	C202.136078,85.669861 203.650070,85.369110 203.428009,88.451233 
z"/>
<path fill="#0C0C0C" opacity="1.000000" stroke="none" 
	d="
M45.470253,90.714455 
	C47.119156,93.255775 46.170483,95.630981 43.495739,95.885124 
	C42.899387,95.941795 42.017620,95.789665 41.698833,95.389687 
	C41.039108,94.561935 41.665012,93.789558 42.440018,93.431122 
	C43.645977,92.873383 44.963806,92.527321 45.470253,90.714455 
z"/>
<path fill="#0D0D0D" opacity="1.000000" stroke="none" 
	d="
M202.798370,97.587357 
	C202.386154,95.522430 205.027054,96.041733 205.150116,94.198486 
	C205.218765,93.170341 206.050476,91.669601 207.474289,92.822456 
	C208.458359,93.619240 208.026138,94.992508 207.318848,95.996407 
	C206.290344,97.456215 204.947784,98.302864 202.798370,97.587357 
z"/>
</svg>